<mxfile host="app.diagrams.net" modified="2023-09-22T03:24:58.406Z" agent="Mozilla/5.0 (X11; Linux x86_64) AppleWebKit/537.36 (KHTML, like Gecko) Chrome/112.0.0.0 Safari/537.36" version="21.8.0" etag="6vwJ_QMBcrOaGbFAcAgg" type="github">
  <diagram name="Page-1" id="92Cb8zp5Ft45KQoqSAhm">
    <mxGraphModel>
      <root>
        <mxCell id="0" />
        <mxCell id="1" parent="0" />
      </root>
    </mxGraphModel>
  </diagram>
</mxfile>
